<svg xmlns="http://www.w3.org/2000/svg" xmlns:xlink="http://www.w3.org/1999/xlink" width="100" zoomAndPan="magnify" viewBox="0 0 75 74.999997" height="100" preserveAspectRatio="xMidYMid meet" version="1.0"><defs><clipPath id="cb23eafce1"><path d="M 2.398438 2.398438 L 72.898438 2.398438 L 72.898438 72.898438 L 2.398438 72.898438 Z M 2.398438 2.398438 " clip-rule="nonzero"/></clipPath></defs><g clip-path="url(#cb23eafce1)"><path fill="#ffffff" d="M 61.496094 2.398438 L 13.496094 2.398438 C 7.378906 2.398438 2.398438 7.378906 2.398438 13.496094 L 2.398438 61.480469 C 2.398438 67.601562 7.378906 72.582031 13.496094 72.582031 L 61.480469 72.582031 C 67.601562 72.582031 72.582031 67.601562 72.582031 61.480469 L 72.582031 13.496094 C 72.59375 7.378906 67.613281 2.398438 61.496094 2.398438 Z M 65.972656 61.496094 C 65.972656 63.972656 63.957031 65.972656 61.496094 65.972656 L 13.496094 65.972656 C 11.019531 65.972656 9.019531 63.957031 9.019531 61.496094 L 9.019531 13.496094 C 9.019531 11.019531 11.035156 9.019531 13.496094 9.019531 L 61.480469 9.019531 C 63.957031 9.019531 65.957031 11.035156 65.957031 13.496094 L 65.957031 61.496094 Z M 65.972656 61.496094 " fill-opacity="1" fill-rule="nonzero"/></g><path fill="#ffffff" d="M 18.292969 37.496094 C 18.292969 48.09375 26.902344 56.699219 37.496094 56.699219 C 48.09375 56.699219 56.699219 48.09375 56.699219 37.496094 C 55.65625 12.027344 19.351562 12.015625 18.292969 37.496094 Z M 24.914062 37.496094 C 24.914062 30.554688 30.554688 24.914062 37.496094 24.914062 C 44.4375 24.914062 50.078125 30.554688 50.078125 37.496094 C 49.390625 54.183594 25.601562 54.183594 24.914062 37.496094 Z M 24.914062 37.496094 " fill-opacity="1" fill-rule="nonzero"/><path fill="#ffffff" d="M 54.050781 17.628906 C 54.15625 22 60.582031 22 60.6875 17.628906 C 60.566406 13.257812 54.15625 13.257812 54.050781 17.628906 Z M 54.050781 17.628906 " fill-opacity="1" fill-rule="nonzero"/></svg>