<svg xmlns="http://www.w3.org/2000/svg" xmlns:xlink="http://www.w3.org/1999/xlink" width="100" zoomAndPan="magnify" viewBox="0 0 75 74.999997" height="100" preserveAspectRatio="xMidYMid meet" version="1.0"><defs><clipPath id="e57127fbd4"><path d="M 2.242188 2.242188 L 72.742188 2.242188 L 72.742188 72.742188 L 2.242188 72.742188 Z M 2.242188 2.242188 " clip-rule="nonzero"/></clipPath></defs><path fill="#ffffff" d="M 38.230469 18.417969 C 27.941406 18.417969 19.578125 26.78125 19.578125 37.070312 C 19.578125 40.671875 20.617188 44.152344 22.539062 47.171875 L 22.996094 47.875 L 21.195312 54.347656 L 28.035156 52.730469 L 28.675781 53.125 C 31.542969 54.835938 34.871094 55.75 38.230469 55.75 C 48.515625 55.75 56.878906 47.386719 56.878906 37.101562 C 56.878906 26.8125 48.515625 18.417969 38.230469 18.417969 Z M 48.851562 45.097656 C 48.667969 46.011719 46.714844 47.171875 45.464844 47.507812 C 42.351562 48.332031 37.953125 45.953125 33.621094 42.167969 C 29.253906 38.382812 26.324219 34.351562 26.691406 31.148438 C 26.84375 29.867188 27.757812 27.757812 28.613281 27.484375 C 29.46875 27.210938 30.078125 27.484375 30.964844 27.757812 C 31.390625 28.246094 31.941406 28.828125 32.550781 29.53125 C 33.375 30.445312 33.925781 31.269531 34.261719 31.851562 C 34.535156 32.339844 34.445312 32.949219 34.015625 33.316406 L 32.519531 34.65625 C 32.246094 34.902344 32.15625 35.300781 32.308594 35.636719 C 32.765625 36.613281 33.832031 38.625 35.453125 40.03125 C 37.039062 41.433594 39.207031 42.226562 40.242188 42.535156 C 40.578125 42.65625 40.976562 42.503906 41.160156 42.199219 L 42.289062 40.550781 C 42.59375 40.089844 43.203125 39.910156 43.722656 40.121094 C 44.335938 40.398438 45.25 40.824219 46.257812 41.496094 C 47.019531 42.015625 47.691406 42.472656 48.210938 42.839844 C 48.667969 43.664062 49.035156 44.242188 48.851562 45.097656 Z M 48.851562 45.097656 " fill-opacity="1" fill-rule="nonzero"/><g clip-path="url(#e57127fbd4)"><path fill="#ffffff" d="M 37.496094 2.242188 C 18.023438 2.242188 2.242188 18.023438 2.242188 37.496094 C 2.242188 56.972656 18.023438 72.753906 37.496094 72.753906 C 56.972656 72.753906 72.753906 56.972656 72.753906 37.496094 C 72.722656 18.023438 56.941406 2.242188 37.496094 2.242188 Z M 38.230469 59.382812 C 34.445312 59.382812 30.75 58.4375 27.453125 56.605469 L 16.007812 59.320312 L 19.03125 48.425781 C 16.984375 44.976562 15.914062 41.066406 15.914062 37.039062 C 15.914062 24.738281 25.929688 14.726562 38.230469 14.726562 C 50.53125 14.726562 60.542969 24.769531 60.542969 37.070312 C 60.542969 49.371094 50.53125 59.382812 38.230469 59.382812 Z M 38.230469 59.382812 " fill-opacity="1" fill-rule="nonzero"/></g></svg>